<?xml version="1.0" encoding="UTF-8"?>
<svg xmlns="http://www.w3.org/2000/svg" xmlns:xlink="http://www.w3.org/1999/xlink" width="641pt" height="168pt" viewBox="0 0 641 168" version="1.1">
<g id="surface1953">
<path style="fill-rule:evenodd;fill:rgb(18%,54.5%,34.1%);fill-opacity:1;stroke-width:0.4;stroke-linecap:butt;stroke-linejoin:round;stroke:rgb(0%,0%,0%);stroke-opacity:1;stroke-miterlimit:10;" d="M 88.344395 829.46193 C 88.344395 832.586136 85.812122 835.118408 82.687916 835.118408 C 79.56371 835.118408 77.031438 832.586136 77.031438 829.46193 C 77.031438 826.337724 79.56371 823.805451 82.687916 823.805451 C 85.812122 823.805451 88.344395 826.337724 88.344395 829.46193 Z M 88.344395 829.46193 " transform="matrix(1.946745,0,0,-1.946745,-148.597252,1627.801293)"/>
<path style="fill-rule:evenodd;fill:rgb(18%,54.5%,34.1%);fill-opacity:1;stroke-width:0.4;stroke-linecap:butt;stroke-linejoin:round;stroke:rgb(0%,0%,0%);stroke-opacity:1;stroke-miterlimit:10;" d="M 88.344395 757.462724 C 88.344395 760.586931 85.812122 763.119203 82.687916 763.119203 C 79.56371 763.119203 77.031438 760.586931 77.031438 757.462724 C 77.031438 754.338518 79.56371 751.806246 82.687916 751.806246 C 85.812122 751.806246 88.344395 754.338518 88.344395 757.462724 Z M 88.344395 757.462724 " transform="matrix(1.946745,0,0,-1.946745,-148.597252,1627.801293)"/>
<path style="fill-rule:evenodd;fill:rgb(18%,54.5%,34.1%);fill-opacity:1;stroke-width:0.4;stroke-linecap:butt;stroke-linejoin:round;stroke:rgb(0%,0%,0%);stroke-opacity:1;stroke-miterlimit:10;" d="M 132.38025 757.462724 C 132.38025 760.586931 129.845971 763.119203 126.721765 763.119203 C 123.597559 763.119203 121.065286 760.586931 121.065286 757.462724 C 121.065286 754.338518 123.597559 751.806246 126.721765 751.806246 C 129.845971 751.806246 132.38025 754.338518 132.38025 757.462724 Z M 132.38025 757.462724 " transform="matrix(1.946745,0,0,-1.946745,-148.597252,1627.801293)"/>
<path style="fill-rule:evenodd;fill:rgb(18%,54.5%,34.1%);fill-opacity:1;stroke-width:0.4;stroke-linecap:butt;stroke-linejoin:round;stroke:rgb(0%,0%,0%);stroke-opacity:1;stroke-miterlimit:10;" d="M 132.38025 829.46193 C 132.38025 832.586136 129.845971 835.118408 126.721765 835.118408 C 123.597559 835.118408 121.065286 832.586136 121.065286 829.46193 C 121.065286 826.337724 123.597559 823.805451 126.721765 823.805451 C 129.845971 823.805451 132.38025 826.337724 132.38025 829.46193 Z M 132.38025 829.46193 " transform="matrix(1.946745,0,0,-1.946745,-148.597252,1627.801293)"/>
<path style="fill-rule:evenodd;fill:rgb(18%,54.5%,34.1%);fill-opacity:1;stroke-width:0.4;stroke-linecap:butt;stroke-linejoin:round;stroke:rgb(0%,0%,0%);stroke-opacity:1;stroke-miterlimit:10;" d="M 132.38025 781.463128 C 132.38025 784.587335 129.845971 787.119607 126.721765 787.119607 C 123.597559 787.119607 121.065286 784.587335 121.065286 781.463128 C 121.065286 778.338922 123.597559 775.80665 126.721765 775.80665 C 129.845971 775.80665 132.38025 778.338922 132.38025 781.463128 Z M 132.38025 781.463128 " transform="matrix(1.946745,0,0,-1.946745,-148.597252,1627.801293)"/>
<path style="fill:none;stroke-width:2;stroke-linecap:butt;stroke-linejoin:round;stroke:rgb(0%,0%,0%);stroke-opacity:1;stroke-miterlimit:10;" d="M 82.998932 823.815484 L 82.998932 763.111177 " transform="matrix(1.946745,0,0,-1.946745,-148.597252,1627.801293)"/>
<path style="fill:none;stroke-width:2;stroke-linecap:butt;stroke-linejoin:round;stroke:rgb(0%,0%,0%);stroke-opacity:1;stroke-miterlimit:10;" d="M 126.810053 763.119203 L 126.810053 775.80665 " transform="matrix(1.946745,0,0,-1.946745,-148.597252,1627.801293)"/>
<path style="fill:none;stroke-width:2;stroke-linecap:butt;stroke-linejoin:round;stroke:rgb(0%,0%,0%);stroke-opacity:1;stroke-miterlimit:10;" d="M 88.330349 829.867254 L 121.079332 829.867254 " transform="matrix(1.946745,0,0,-1.946745,-148.597252,1627.801293)"/>
<path style="fill:none;stroke-width:2;stroke-linecap:butt;stroke-linejoin:round;stroke:rgb(0%,0%,0%);stroke-opacity:1;stroke-miterlimit:10;" d="M 88.334362 757.123617 L 121.075319 757.123617 " transform="matrix(1.946745,0,0,-1.946745,-148.597252,1627.801293)"/>
<path style="fill-rule:evenodd;fill:rgb(93.3%,51%,93.3%);fill-opacity:1;stroke-width:0.4;stroke-linecap:butt;stroke-linejoin:round;stroke:rgb(0%,0%,0%);stroke-opacity:1;stroke-miterlimit:10;" d="M 360.64193 829.807057 C 360.64193 832.931263 358.109658 835.463536 354.985452 835.463536 C 351.861246 835.463536 349.328973 832.931263 349.328973 829.807057 C 349.328973 826.682851 351.861246 824.150579 354.985452 824.150579 C 358.109658 824.150579 360.64193 826.682851 360.64193 829.807057 Z M 360.64193 829.807057 " transform="matrix(1.946745,0,0,-1.946745,-148.597252,1627.801293)"/>
<path style="fill-rule:evenodd;fill:rgb(93.3%,51%,93.3%);fill-opacity:1;stroke-width:0.4;stroke-linecap:butt;stroke-linejoin:round;stroke:rgb(0%,0%,0%);stroke-opacity:1;stroke-miterlimit:10;" d="M 360.64193 757.807852 C 360.64193 760.932058 358.109658 763.46433 354.985452 763.46433 C 351.861246 763.46433 349.328973 760.932058 349.328973 757.807852 C 349.328973 754.683646 351.861246 752.151373 354.985452 752.151373 C 358.109658 752.151373 360.64193 754.683646 360.64193 757.807852 Z M 360.64193 757.807852 " transform="matrix(1.946745,0,0,-1.946745,-148.597252,1627.801293)"/>
<path style="fill-rule:evenodd;fill:rgb(93.3%,51%,93.3%);fill-opacity:1;stroke-width:0.4;stroke-linecap:butt;stroke-linejoin:round;stroke:rgb(0%,0%,0%);stroke-opacity:1;stroke-miterlimit:10;" d="M 404.677786 757.807852 C 404.677786 760.932058 402.145513 763.46433 399.021307 763.46433 C 395.897101 763.46433 393.364829 760.932058 393.364829 757.807852 C 393.364829 754.683646 395.897101 752.151373 399.021307 752.151373 C 402.145513 752.151373 404.677786 754.683646 404.677786 757.807852 Z M 404.677786 757.807852 " transform="matrix(1.946745,0,0,-1.946745,-148.597252,1627.801293)"/>
<path style="fill:none;stroke-width:2;stroke-linecap:butt;stroke-linejoin:round;stroke:rgb(0%,0%,0%);stroke-opacity:1;stroke-miterlimit:10;" d="M 355.296468 824.158605 L 355.296468 763.456304 " transform="matrix(1.946745,0,0,-1.946745,-148.597252,1627.801293)"/>
<path style="fill:none;stroke-width:2;stroke-linecap:butt;stroke-linejoin:round;stroke:rgb(0%,0%,0%);stroke-opacity:1;stroke-miterlimit:10;" d="M 360.631897 757.468744 L 393.374861 757.468744 " transform="matrix(1.946745,0,0,-1.946745,-148.597252,1627.801293)"/>
<path style="fill-rule:evenodd;fill:rgb(100%,100%,87.8%);fill-opacity:1;stroke-width:0.4;stroke-linecap:butt;stroke-linejoin:round;stroke:rgb(0%,0%,0%);stroke-opacity:1;stroke-miterlimit:10;" d="M 248.670143 829.809064 C 248.670143 832.93327 246.137871 835.465542 243.013665 835.465542 C 239.889459 835.465542 237.357186 832.93327 237.357186 829.809064 C 237.357186 826.684858 239.889459 824.152585 243.013665 824.152585 C 246.137871 824.152585 248.670143 826.684858 248.670143 829.809064 Z M 248.670143 829.809064 " transform="matrix(1.946745,0,0,-1.946745,-148.597252,1627.801293)"/>
<path style="fill-rule:evenodd;fill:rgb(100%,100%,87.8%);fill-opacity:1;stroke-width:0.4;stroke-linecap:butt;stroke-linejoin:round;stroke:rgb(0%,0%,0%);stroke-opacity:1;stroke-miterlimit:10;" d="M 248.670143 757.809858 C 248.670143 760.934065 246.137871 763.466337 243.013665 763.466337 C 239.889459 763.466337 237.357186 760.934065 237.357186 757.809858 C 237.357186 754.685652 239.889459 752.151373 243.013665 752.151373 C 246.137871 752.151373 248.670143 754.685652 248.670143 757.809858 Z M 248.670143 757.809858 " transform="matrix(1.946745,0,0,-1.946745,-148.597252,1627.801293)"/>
<path style="fill-rule:evenodd;fill:rgb(100%,100%,87.8%);fill-opacity:1;stroke-width:0.4;stroke-linecap:butt;stroke-linejoin:round;stroke:rgb(0%,0%,0%);stroke-opacity:1;stroke-miterlimit:10;" d="M 292.703992 757.809858 C 292.703992 760.934065 290.17172 763.466337 287.047514 763.466337 C 283.923307 763.466337 281.391035 760.934065 281.391035 757.809858 C 281.391035 754.685652 283.923307 752.151373 287.047514 752.151373 C 290.17172 752.151373 292.703992 754.685652 292.703992 757.809858 Z M 292.703992 757.809858 " transform="matrix(1.946745,0,0,-1.946745,-148.597252,1627.801293)"/>
<path style="fill-rule:evenodd;fill:rgb(100%,100%,87.8%);fill-opacity:1;stroke-width:0.4;stroke-linecap:butt;stroke-linejoin:round;stroke:rgb(0%,0%,0%);stroke-opacity:1;stroke-miterlimit:10;" d="M 292.703992 829.809064 C 292.703992 832.93327 290.17172 835.465542 287.047514 835.465542 C 283.923307 835.465542 281.391035 832.93327 281.391035 829.809064 C 281.391035 826.684858 283.923307 824.152585 287.047514 824.152585 C 290.17172 824.152585 292.703992 826.684858 292.703992 829.809064 Z M 292.703992 829.809064 " transform="matrix(1.946745,0,0,-1.946745,-148.597252,1627.801293)"/>
<path style="fill-rule:evenodd;fill:rgb(100%,100%,87.8%);fill-opacity:1;stroke-width:0.4;stroke-linecap:butt;stroke-linejoin:round;stroke:rgb(0%,0%,0%);stroke-opacity:1;stroke-miterlimit:10;" d="M 248.670143 793.809461 C 248.670143 796.933667 246.137871 799.46594 243.013665 799.46594 C 239.889459 799.46594 237.357186 796.933667 237.357186 793.809461 C 237.357186 790.685255 239.889459 788.152983 243.013665 788.152983 C 246.137871 788.152983 248.670143 790.685255 248.670143 793.809461 Z M 248.670143 793.809461 " transform="matrix(1.946745,0,0,-1.946745,-148.597252,1627.801293)"/>
<path style="fill:none;stroke-width:2;stroke-linecap:butt;stroke-linejoin:round;stroke:rgb(0%,0%,0%);stroke-opacity:1;stroke-miterlimit:10;" d="M 248.621986 793.05901 L 283.170849 761.927309 " transform="matrix(1.946745,0,0,-1.946745,-148.597252,1627.801293)"/>
<path style="fill:none;stroke-width:2;stroke-linecap:butt;stroke-linejoin:round;stroke:rgb(0%,0%,0%);stroke-opacity:1;stroke-miterlimit:10;" d="M 248.31699 795.779898 L 282.68727 826.205291 " transform="matrix(1.946745,0,0,-1.946745,-148.597252,1627.801293)"/>
<path style="fill:none;stroke-width:2;stroke-linecap:butt;stroke-linejoin:round;stroke:rgb(0%,0%,0%);stroke-opacity:1;stroke-miterlimit:10;" d="M 242.877219 824.154592 L 242.877219 799.463933 " transform="matrix(1.946745,0,0,-1.946745,-148.597252,1627.801293)"/>
<path style="fill:none;stroke-width:2;stroke-linecap:butt;stroke-linejoin:round;stroke:rgb(0%,0%,0%);stroke-opacity:1;stroke-miterlimit:10;" d="M 243.296589 788.159002 L 243.296589 763.458311 " transform="matrix(1.946745,0,0,-1.946745,-148.597252,1627.801293)"/>
<path style="fill-rule:evenodd;fill:rgb(82.7%,82.7%,82.7%);fill-opacity:1;stroke-width:0.4;stroke-linecap:butt;stroke-linejoin:round;stroke:rgb(0%,0%,0%);stroke-opacity:1;stroke-miterlimit:10;" d="M 160.538236 773.428882 C 160.538236 776.553088 158.005963 779.085361 154.881757 779.085361 C 151.757551 779.085361 149.225279 776.553088 149.225279 773.428882 C 149.225279 770.304676 151.757551 767.772404 154.881757 767.772404 C 158.005963 767.772404 160.538236 770.304676 160.538236 773.428882 Z M 160.538236 773.428882 " transform="matrix(1.946745,0,0,-1.946745,-148.597252,1627.801293)"/>
<path style="fill-rule:evenodd;fill:rgb(82.7%,82.7%,82.7%);fill-opacity:1;stroke-width:0.4;stroke-linecap:butt;stroke-linejoin:round;stroke:rgb(0%,0%,0%);stroke-opacity:1;stroke-miterlimit:10;" d="M 160.538236 757.428613 C 160.538236 760.552819 158.005963 763.085091 154.881757 763.085091 C 151.757551 763.085091 149.225279 760.552819 149.225279 757.428613 C 149.225279 754.304407 151.757551 751.772135 154.881757 751.772135 C 158.005963 751.772135 160.538236 754.304407 160.538236 757.428613 Z M 160.538236 757.428613 " transform="matrix(1.946745,0,0,-1.946745,-148.597252,1627.801293)"/>
<path style="fill-rule:evenodd;fill:rgb(82.7%,82.7%,82.7%);fill-opacity:1;stroke-width:0.4;stroke-linecap:butt;stroke-linejoin:round;stroke:rgb(0%,0%,0%);stroke-opacity:1;stroke-miterlimit:10;" d="M 160.538236 789.429152 C 160.538236 792.553358 158.005963 795.08563 154.881757 795.08563 C 151.757551 795.08563 149.225279 792.553358 149.225279 789.429152 C 149.225279 786.304946 151.757551 783.772673 154.881757 783.772673 C 158.005963 783.772673 160.538236 786.304946 160.538236 789.429152 Z M 160.538236 789.429152 " transform="matrix(1.946745,0,0,-1.946745,-148.597252,1627.801293)"/>
<path style="fill:none;stroke-width:2;stroke-linecap:butt;stroke-linejoin:round;stroke:rgb(0%,0%,0%);stroke-opacity:1;stroke-miterlimit:10;" d="M 155.004157 783.77468 L 155.004157 779.085361 " transform="matrix(1.946745,0,0,-1.946745,-148.597252,1627.801293)"/>
<path style="fill:none;stroke-width:2;stroke-linecap:butt;stroke-linejoin:round;stroke:rgb(0%,0%,0%);stroke-opacity:1;stroke-miterlimit:10;" d="M 155.02021 767.77441 L 155.02021 763.083085 " transform="matrix(1.946745,0,0,-1.946745,-148.597252,1627.801293)"/>
<path style="fill-rule:evenodd;fill:rgb(82.7%,82.7%,82.7%);fill-opacity:1;stroke-width:0.4;stroke-linecap:butt;stroke-linejoin:round;stroke:rgb(0%,0%,0%);stroke-opacity:1;stroke-miterlimit:10;" d="M 176.538505 793.428216 C 176.538505 796.552422 174.006233 799.084694 170.882027 799.084694 C 167.757821 799.084694 165.225548 796.552422 165.225548 793.428216 C 165.225548 790.30401 167.757821 787.771737 170.882027 787.771737 C 174.006233 787.771737 176.538505 790.30401 176.538505 793.428216 Z M 176.538505 793.428216 " transform="matrix(1.946745,0,0,-1.946745,-148.597252,1627.801293)"/>
<path style="fill:none;stroke-width:2;stroke-linecap:butt;stroke-linejoin:round;stroke:rgb(0%,0%,0%);stroke-opacity:1;stroke-miterlimit:10;" d="M 160.482052 790.227761 L 165.520512 791.622316 " transform="matrix(1.946745,0,0,-1.946745,-148.597252,1627.801293)"/>
<path style="fill-rule:evenodd;fill:rgb(0%,0%,100%);fill-opacity:1;stroke-width:0.4;stroke-linecap:butt;stroke-linejoin:round;stroke:rgb(0%,0%,0%);stroke-opacity:1;stroke-miterlimit:10;" d="M 196.381327 788.777021 C 196.381327 791.901227 193.849055 794.4335 190.724849 794.4335 C 187.600643 794.4335 185.066364 791.901227 185.066364 788.777021 C 185.066364 785.652815 187.600643 783.118536 190.724849 783.118536 C 193.849055 783.118536 196.381327 785.652815 196.381327 788.777021 Z M 196.381327 788.777021 " transform="matrix(1.946745,0,0,-1.946745,-148.597252,1627.801293)"/>
<path style="fill-rule:evenodd;fill:rgb(0%,0%,100%);fill-opacity:1;stroke-width:0.4;stroke-linecap:butt;stroke-linejoin:round;stroke:rgb(0%,0%,0%);stroke-opacity:1;stroke-miterlimit:10;" d="M 226.309095 778.338922 C 226.309095 781.463128 223.776822 783.995401 220.652616 783.995401 C 217.52841 783.995401 214.996138 781.463128 214.996138 778.338922 C 214.996138 775.214716 217.52841 772.682444 220.652616 772.682444 C 223.776822 772.682444 226.309095 775.214716 226.309095 778.338922 Z M 226.309095 778.338922 " transform="matrix(1.946745,0,0,-1.946745,-148.597252,1627.801293)"/>
<path style="fill-rule:evenodd;fill:rgb(0%,0%,100%);fill-opacity:1;stroke-width:0.4;stroke-linecap:butt;stroke-linejoin:round;stroke:rgb(0%,0%,0%);stroke-opacity:1;stroke-miterlimit:10;" d="M 195.374037 768.589072 C 195.374037 771.713278 192.841764 774.24555 189.717558 774.24555 C 186.593352 774.24555 184.06108 771.713278 184.06108 768.589072 C 184.06108 765.464866 186.593352 762.932593 189.717558 762.932593 C 192.841764 762.932593 195.374037 765.464866 195.374037 768.589072 Z M 195.374037 768.589072 " transform="matrix(1.946745,0,0,-1.946745,-148.597252,1627.801293)"/>
<path style="fill-rule:evenodd;fill:rgb(0%,0%,100%);fill-opacity:1;stroke-width:0.4;stroke-linecap:butt;stroke-linejoin:round;stroke:rgb(0%,0%,0%);stroke-opacity:1;stroke-miterlimit:10;" d="M 227.374575 756.589873 C 227.374575 759.714079 224.842303 762.246351 221.718097 762.246351 C 218.593891 762.246351 216.061618 759.714079 216.061618 756.589873 C 216.061618 753.465667 218.593891 750.931388 221.718097 750.931388 C 224.842303 750.931388 227.374575 753.465667 227.374575 756.589873 Z M 227.374575 756.589873 " transform="matrix(1.946745,0,0,-1.946745,-148.597252,1627.801293)"/>
<path style="fill:none;stroke-width:2;stroke-linecap:butt;stroke-linejoin:round;stroke:rgb(0%,0%,0%);stroke-opacity:1;stroke-miterlimit:10;" d="M 192.330093 763.570678 C 197.912329 756.320995 207.327085 753.168697 216.1479 755.598635 " transform="matrix(1.946745,0,0,-1.946745,-148.597252,1627.801293)"/>
<path style="fill:none;stroke-width:2;stroke-linecap:butt;stroke-linejoin:round;stroke:rgb(0%,0%,0%);stroke-opacity:1;stroke-miterlimit:10;" d="M 220.93554 772.688464 L 221.746189 762.246351 " transform="matrix(1.946745,0,0,-1.946745,-148.597252,1627.801293)"/>
<path style="fill:none;stroke-width:2;stroke-linecap:butt;stroke-linejoin:round;stroke:rgb(0%,0%,0%);stroke-opacity:1;stroke-miterlimit:10;" d="M 194.593487 771.456439 C 198.554426 778.904771 207.204685 782.540648 215.297121 780.158868 " transform="matrix(1.946745,0,0,-1.946745,-148.597252,1627.801293)"/>
<path style="fill:none;stroke-width:2;stroke-linecap:butt;stroke-linejoin:round;stroke:rgb(0%,0%,0%);stroke-opacity:1;stroke-miterlimit:10;" d="M 195.594758 791.654421 C 199.85668 794.618103 205.238261 795.474902 210.210504 793.980018 C 215.182747 792.485135 219.19987 788.8011 221.120143 783.977342 " transform="matrix(1.946745,0,0,-1.946745,-148.597252,1627.801293)"/>
<path style="fill-rule:evenodd;fill:rgb(100%,0%,0%);fill-opacity:1;stroke-width:0.4;stroke-linecap:butt;stroke-linejoin:round;stroke:rgb(0%,0%,0%);stroke-opacity:1;stroke-miterlimit:10;" d="M 312.44448 778.525532 C 312.44448 781.649738 309.912207 784.18201 306.788001 784.18201 C 303.663795 784.18201 301.131523 781.649738 301.131523 778.525532 C 301.131523 775.401326 303.663795 772.869053 306.788001 772.869053 C 309.912207 772.869053 312.44448 775.401326 312.44448 778.525532 Z M 312.44448 778.525532 " transform="matrix(1.946745,0,0,-1.946745,-148.597252,1627.801293)"/>
<path style="fill-rule:evenodd;fill:rgb(100%,0%,0%);fill-opacity:1;stroke-width:0.4;stroke-linecap:butt;stroke-linejoin:round;stroke:rgb(0%,0%,0%);stroke-opacity:1;stroke-miterlimit:10;" d="M 340.443948 778.525532 C 340.443948 781.649738 337.911675 784.18201 334.787469 784.18201 C 331.663263 784.18201 329.130991 781.649738 329.130991 778.525532 C 329.130991 775.401326 331.663263 772.869053 334.787469 772.869053 C 337.911675 772.869053 340.443948 775.401326 340.443948 778.525532 Z M 340.443948 778.525532 " transform="matrix(1.946745,0,0,-1.946745,-148.597252,1627.801293)"/>
<path style="fill:none;stroke-width:2;stroke-linecap:butt;stroke-linejoin:round;stroke:rgb(0%,0%,0%);stroke-opacity:1;stroke-miterlimit:10;" d="M 312.440467 778.282739 L 329.135004 778.282739 " transform="matrix(1.946745,0,0,-1.946745,-148.597252,1627.801293)"/>
<path style="fill:none;stroke-width:2;stroke-linecap:butt;stroke-linejoin:round;stroke:rgb(0%,0%,0%);stroke-opacity:1;stroke-miterlimit:10;" d="M 307.297666 784.157932 C 310.189112 788.692746 315.19948 791.4337 320.577047 791.421661 C 325.954614 791.409621 330.952943 788.646595 333.824323 784.099742 " transform="matrix(1.946745,0,0,-1.946745,-148.597252,1627.801293)"/>
<path style="fill-rule:evenodd;fill:rgb(100%,0%,0%);fill-opacity:1;stroke-width:0.4;stroke-linecap:butt;stroke-linejoin:round;stroke:rgb(0%,0%,0%);stroke-opacity:1;stroke-miterlimit:10;" d="M 311.645871 758.114855 C 311.645871 761.239061 309.113599 763.771333 305.989392 763.771333 C 302.865186 763.771333 300.332914 761.239061 300.332914 758.114855 C 300.332914 754.990649 302.865186 752.458376 305.989392 752.458376 C 309.113599 752.458376 311.645871 754.990649 311.645871 758.114855 Z M 311.645871 758.114855 " transform="matrix(1.946745,0,0,-1.946745,-148.597252,1627.801293)"/>
<path style="fill-rule:evenodd;fill:rgb(100%,0%,0%);fill-opacity:1;stroke-width:0.4;stroke-linecap:butt;stroke-linejoin:round;stroke:rgb(0%,0%,0%);stroke-opacity:1;stroke-miterlimit:10;" d="M 339.645339 758.114855 C 339.645339 761.239061 337.113067 763.771333 333.988861 763.771333 C 330.864654 763.771333 328.332382 761.239061 328.332382 758.114855 C 328.332382 754.990649 330.864654 752.458376 333.988861 752.458376 C 337.113067 752.458376 339.645339 754.990649 339.645339 758.114855 Z M 339.645339 758.114855 " transform="matrix(1.946745,0,0,-1.946745,-148.597252,1627.801293)"/>
<path style="fill:none;stroke-width:2;stroke-linecap:butt;stroke-linejoin:round;stroke:rgb(0%,0%,0%);stroke-opacity:1;stroke-miterlimit:10;" d="M 311.29673 756.158464 C 316.810743 753.604119 323.16751 753.594086 328.691555 756.128365 " transform="matrix(1.946745,0,0,-1.946745,-148.597252,1627.801293)"/>
<path style="fill:none;stroke-width:2;stroke-linecap:butt;stroke-linejoin:round;stroke:rgb(0%,0%,0%);stroke-opacity:1;stroke-miterlimit:10;" d="M 303.719979 763.668999 C 301.310106 766.197258 301.406421 770.200335 303.936687 772.610208 " transform="matrix(1.946745,0,0,-1.946745,-148.597252,1627.801293)"/>
<path style="fill-rule:evenodd;fill:rgb(18%,54.5%,34.1%);fill-opacity:1;stroke-width:0.4;stroke-linecap:butt;stroke-linejoin:round;stroke:rgb(0%,0%,0%);stroke-opacity:1;stroke-miterlimit:10;" d="M 116.379981 781.463128 C 116.379981 784.587335 113.845702 787.119607 110.721496 787.119607 C 107.59729 787.119607 105.065017 784.587335 105.065017 781.463128 C 105.065017 778.338922 107.59729 775.80665 110.721496 775.80665 C 113.845702 775.80665 116.379981 778.338922 116.379981 781.463128 Z M 116.379981 781.463128 " transform="matrix(1.946745,0,0,-1.946745,-148.597252,1627.801293)"/>
<path style="fill:none;stroke-width:2;stroke-linecap:butt;stroke-linejoin:round;stroke:rgb(0%,0%,0%);stroke-opacity:1;stroke-miterlimit:10;" d="M 116.367941 781.093922 L 121.077326 781.093922 " transform="matrix(1.946745,0,0,-1.946745,-148.597252,1627.801293)"/>
</g>
</svg>
